<svg xmlns="http://www.w3.org/2000/svg" width="680" height="618">
<style>
text { font-family: Times New Roman, sans-serif; }
</style>
<text x="10" y="46" font-size="14">Federated M L</text>
<rect x="180" y="30" width="400" height="24" fill="#4c72b0" rx="4" />
<text x="588" y="46" font-size="14">13295</text>
<text x="10" y="80" font-size="14">Inversion Attacks</text>
<rect x="180" y="64" width="110" height="24" fill="#4c72b0" rx="4" />
<text x="298" y="80" font-size="14">3671</text>
<text x="10" y="114" font-size="14">Model Inference Attack</text>
<rect x="180" y="98" width="108" height="24" fill="#4c72b0" rx="4" />
<text x="296" y="114" font-size="14">3609</text>
<text x="10" y="148" font-size="14">Machine Unlearning</text>
<rect x="180" y="132" width="20" height="24" fill="#4c72b0" rx="4" />
<text x="208" y="148" font-size="14">674</text>
<text x="10" y="182" font-size="14">Mamba</text>
<rect x="180" y="166" width="14" height="24" fill="#4c72b0" rx="4" />
<text x="202" y="182" font-size="14">471</text>
<text x="10" y="216" font-size="14">Few Shot Segmentation</text>
<rect x="180" y="200" width="8" height="24" fill="#4c72b0" rx="4" />
<text x="196" y="216" font-size="14">275</text>
<text x="10" y="250" font-size="14">L L M Unlearning</text>
<rect x="180" y="234" width="7" height="24" fill="#4c72b0" rx="4" />
<text x="195" y="250" font-size="14">237</text>
<text x="10" y="284" font-size="14">Model Poisoning Attack</text>
<rect x="180" y="268" width="6" height="24" fill="#4c72b0" rx="4" />
<text x="194" y="284" font-size="14">229</text>
<text x="10" y="318" font-size="14">Model Injection Attack</text>
<rect x="180" y="302" width="3" height="24" fill="#4c72b0" rx="4" />
<text x="191" y="318" font-size="14">100</text>
<text x="10" y="352" font-size="14">Mamba Segmentation</text>
<rect x="180" y="336" width="2" height="24" fill="#4c72b0" rx="4" />
<text x="190" y="352" font-size="14">69</text>
<text x="10" y="386" font-size="14">Prompt Injection Attack</text>
<rect x="180" y="370" width="1" height="24" fill="#4c72b0" rx="4" />
<text x="189" y="386" font-size="14">43</text>
<text x="10" y="420" font-size="14">Federated Unlearning</text>
<rect x="180" y="404" width="0" height="24" fill="#4c72b0" rx="4" />
<text x="188" y="420" font-size="14">33</text>
<text x="10" y="454" font-size="14">Explainability Transformers</text>
<rect x="180" y="438" width="0" height="24" fill="#4c72b0" rx="4" />
<text x="188" y="454" font-size="14">31</text>
<text x="10" y="488" font-size="14">Privacy Backdoor Attack</text>
<rect x="180" y="472" width="0" height="24" fill="#4c72b0" rx="4" />
<text x="188" y="488" font-size="14">12</text>
<text x="10" y="522" font-size="14">Prompt Corruption</text>
<rect x="180" y="506" width="0" height="24" fill="#4c72b0" rx="4" />
<text x="188" y="522" font-size="14">4</text>
<text x="10" y="556" font-size="14">Prompt Poisoning Attack</text>
<rect x="180" y="540" width="0" height="24" fill="#4c72b0" rx="4" />
<text x="188" y="556" font-size="14">4</text>
<text x="10" y="590" font-size="14">Vulnerability Distributed Optimization</text>
<rect x="180" y="574" width="0" height="24" fill="#4c72b0" rx="4" />
<text x="188" y="590" font-size="14">0</text>
</svg>