<svg xmlns="http://www.w3.org/2000/svg" width="680" height="550">
<style>
text { font-family: Times New Roman, sans-serif; }
</style>
<text x="10" y="46" font-size="14">Federated M L</text>
<rect x="180" y="30" width="400" height="24" fill="#4c72b0" rx="4" />
<text x="588" y="46" font-size="14">3842</text>
<text x="10" y="80" font-size="14">Model Inference Attack</text>
<rect x="180" y="64" width="131" height="24" fill="#4c72b0" rx="4" />
<text x="319" y="80" font-size="14">1266</text>
<text x="10" y="114" font-size="14">Inversion Attacks</text>
<rect x="180" y="98" width="42" height="24" fill="#4c72b0" rx="4" />
<text x="230" y="114" font-size="14">413</text>
<text x="10" y="148" font-size="14">Mamba</text>
<rect x="180" y="132" width="33" height="24" fill="#4c72b0" rx="4" />
<text x="221" y="148" font-size="14">319</text>
<text x="10" y="182" font-size="14">Machine Unlearning</text>
<rect x="180" y="166" width="13" height="24" fill="#4c72b0" rx="4" />
<text x="201" y="182" font-size="14">134</text>
<text x="10" y="216" font-size="14">L L M Unlearning</text>
<rect x="180" y="200" width="8" height="24" fill="#4c72b0" rx="4" />
<text x="196" y="216" font-size="14">79</text>
<text x="10" y="250" font-size="14">Model Poisoning Attack</text>
<rect x="180" y="234" width="8" height="24" fill="#4c72b0" rx="4" />
<text x="196" y="250" font-size="14">79</text>
<text x="10" y="284" font-size="14">Model Injection Attack</text>
<rect x="180" y="268" width="5" height="24" fill="#4c72b0" rx="4" />
<text x="193" y="284" font-size="14">56</text>
<text x="10" y="318" font-size="14">Mamba Segmentation</text>
<rect x="180" y="302" width="4" height="24" fill="#4c72b0" rx="4" />
<text x="192" y="318" font-size="14">45</text>
<text x="10" y="352" font-size="14">Federated Unlearning</text>
<rect x="180" y="336" width="3" height="24" fill="#4c72b0" rx="4" />
<text x="191" y="352" font-size="14">29</text>
<text x="10" y="386" font-size="14">Explainability Transformers</text>
<rect x="180" y="370" width="2" height="24" fill="#4c72b0" rx="4" />
<text x="190" y="386" font-size="14">25</text>
<text x="10" y="420" font-size="14">Prompt Injection Attack</text>
<rect x="180" y="404" width="2" height="24" fill="#4c72b0" rx="4" />
<text x="190" y="420" font-size="14">21</text>
<text x="10" y="454" font-size="14">Privacy Backdoor Attack</text>
<rect x="180" y="438" width="0" height="24" fill="#4c72b0" rx="4" />
<text x="188" y="454" font-size="14">8</text>
<text x="10" y="488" font-size="14">Prompt Corruption</text>
<rect x="180" y="472" width="0" height="24" fill="#4c72b0" rx="4" />
<text x="188" y="488" font-size="14">1</text>
<text x="10" y="522" font-size="14">Prompt Poisoning Attack</text>
<rect x="180" y="506" width="0" height="24" fill="#4c72b0" rx="4" />
<text x="188" y="522" font-size="14">1</text>
</svg>