<svg xmlns="http://www.w3.org/2000/svg" width="680" height="584">
<style>
text { font-family: Times New Roman, sans-serif; }
</style>
<text x="10" y="46" font-size="14">Federated M L</text>
<rect x="180" y="30" width="400" height="24" fill="#4c72b0" rx="4" />
<text x="588" y="46" font-size="14">12992</text>
<text x="10" y="80" font-size="14">Inversion Attacks</text>
<rect x="180" y="64" width="111" height="24" fill="#4c72b0" rx="4" />
<text x="299" y="80" font-size="14">3636</text>
<text x="10" y="114" font-size="14">Model Inference Attack</text>
<rect x="180" y="98" width="109" height="24" fill="#4c72b0" rx="4" />
<text x="297" y="114" font-size="14">3543</text>
<text x="10" y="148" font-size="14">Machine Unlearning</text>
<rect x="180" y="132" width="20" height="24" fill="#4c72b0" rx="4" />
<text x="208" y="148" font-size="14">653</text>
<text x="10" y="182" font-size="14">Mamba</text>
<rect x="180" y="166" width="11" height="24" fill="#4c72b0" rx="4" />
<text x="199" y="182" font-size="14">363</text>
<text x="10" y="216" font-size="14">Few Shot Segmentation</text>
<rect x="180" y="200" width="7" height="24" fill="#4c72b0" rx="4" />
<text x="195" y="216" font-size="14">239</text>
<text x="10" y="250" font-size="14">Model Poisoning Attack</text>
<rect x="180" y="234" width="6" height="24" fill="#4c72b0" rx="4" />
<text x="194" y="250" font-size="14">224</text>
<text x="10" y="284" font-size="14">L L M Unlearning</text>
<rect x="180" y="268" width="6" height="24" fill="#4c72b0" rx="4" />
<text x="194" y="284" font-size="14">217</text>
<text x="10" y="318" font-size="14">Model Injection Attack</text>
<rect x="180" y="302" width="2" height="24" fill="#4c72b0" rx="4" />
<text x="190" y="318" font-size="14">90</text>
<text x="10" y="352" font-size="14">Mamba Segmentation</text>
<rect x="180" y="336" width="1" height="24" fill="#4c72b0" rx="4" />
<text x="189" y="352" font-size="14">55</text>
<text x="10" y="386" font-size="14">Federated Unlearning</text>
<rect x="180" y="370" width="1" height="24" fill="#4c72b0" rx="4" />
<text x="189" y="386" font-size="14">33</text>
<text x="10" y="420" font-size="14">Explainability Transformers</text>
<rect x="180" y="404" width="0" height="24" fill="#4c72b0" rx="4" />
<text x="188" y="420" font-size="14">28</text>
<text x="10" y="454" font-size="14">Prompt Injection Attack</text>
<rect x="180" y="438" width="0" height="24" fill="#4c72b0" rx="4" />
<text x="188" y="454" font-size="14">26</text>
<text x="10" y="488" font-size="14">Privacy Backdoor Attack</text>
<rect x="180" y="472" width="0" height="24" fill="#4c72b0" rx="4" />
<text x="188" y="488" font-size="14">12</text>
<text x="10" y="522" font-size="14">Prompt Corruption</text>
<rect x="180" y="506" width="0" height="24" fill="#4c72b0" rx="4" />
<text x="188" y="522" font-size="14">4</text>
<text x="10" y="556" font-size="14">Prompt Poisoning Attack</text>
<rect x="180" y="540" width="0" height="24" fill="#4c72b0" rx="4" />
<text x="188" y="556" font-size="14">4</text>
</svg>