<svg xmlns="http://www.w3.org/2000/svg" width="680" height="278">
<style>
text { font-family: Times New Roman, sans-serif; }
</style>
<text x="10" y="46" font-size="14">Federated M L</text>
<rect x="180" y="30" width="400" height="24" fill="#4c72b0" rx="4" />
<text x="588" y="46" font-size="14">2271</text>
<text x="10" y="80" font-size="14">Inversion Attacks</text>
<rect x="180" y="64" width="22" height="24" fill="#4c72b0" rx="4" />
<text x="210" y="80" font-size="14">126</text>
<text x="10" y="114" font-size="14">Machine Unlearning</text>
<rect x="180" y="98" width="18" height="24" fill="#4c72b0" rx="4" />
<text x="206" y="114" font-size="14">107</text>
<text x="10" y="148" font-size="14">L L M Unlearning</text>
<rect x="180" y="132" width="9" height="24" fill="#4c72b0" rx="4" />
<text x="197" y="148" font-size="14">53</text>
<text x="10" y="182" font-size="14">Federated Unlearning</text>
<rect x="180" y="166" width="4" height="24" fill="#4c72b0" rx="4" />
<text x="192" y="182" font-size="14">25</text>
<text x="10" y="216" font-size="14">Prompt Injection Attack</text>
<rect x="180" y="200" width="3" height="24" fill="#4c72b0" rx="4" />
<text x="191" y="216" font-size="14">20</text>
<text x="10" y="250" font-size="14">Prompt Poisoning Attack</text>
<rect x="180" y="234" width="0" height="24" fill="#4c72b0" rx="4" />
<text x="188" y="250" font-size="14">1</text>
</svg>